<svg width="36" height="36" viewBox="0 0 36 36" fill="none" xmlns="http://www.w3.org/2000/svg">
<path d="M1.33333 17.9999C1.33333 27.2049 8.795 34.6666 18 34.6666C27.205 34.6666 34.6667 27.2049 34.6667 17.9999C34.6667 8.79492 27.205 1.33325 18 1.33325C8.795 1.33325 1.33333 8.79492 1.33333 17.9999Z" stroke="#222222" stroke-width="1.875" stroke-linecap="round" stroke-linejoin="round"/>
<path d="M19.6667 1.4165C19.6667 1.4165 24.6667 7.99984 24.6667 17.9998C24.6667 27.9998 19.6667 34.5832 19.6667 34.5832M16.3333 34.5832C16.3333 34.5832 11.3333 27.9998 11.3333 17.9998C11.3333 7.99984 16.3333 1.4165 16.3333 1.4165M2.38333 23.8332H33.6167M2.38333 12.1665H33.6167" stroke="#222222" stroke-width="1.875" stroke-linecap="round" stroke-linejoin="round"/>
</svg>
