<svg width="72" height="72" viewBox="0 0 72 72" fill="none" xmlns="http://www.w3.org/2000/svg">
<g clip-path="url(#clip0_930_475)">
<circle cx="36" cy="36" r="36" fill="#37B9DF"/>
<path fill-rule="evenodd" clip-rule="evenodd" d="M12.7791 14C12.5454 14 12.3141 14.046 12.0982 14.1354C11.8824 14.2248 11.6863 14.3559 11.5211 14.5211C11.3559 14.6863 11.2248 14.8824 11.1354 15.0982C11.046 15.3141 11 15.5454 11 15.7791C11 16.0127 11.046 16.244 11.1354 16.4599C11.2248 16.6757 11.3559 16.8719 11.5211 17.0371C11.6863 17.2023 11.8824 17.3333 12.0982 17.4227C12.3141 17.5121 12.5454 17.5581 12.7791 17.5581H60.2209C60.6928 17.5581 61.1453 17.3707 61.4789 17.0371C61.8126 16.7034 62 16.2509 62 15.7791C62 15.3072 61.8126 14.8547 61.4789 14.5211C61.1453 14.1874 60.6928 14 60.2209 14H12.7791V14ZM22.394 39.2312C22.2192 39.394 22.079 39.5904 21.9817 39.8087C21.8845 40.0269 21.8322 40.2625 21.828 40.5014C21.8238 40.7402 21.8677 40.9775 21.9572 41.199C22.0467 41.4206 22.1799 41.6218 22.3488 41.7907C22.5177 41.9597 22.719 42.0929 22.9405 42.1823C23.162 42.2718 23.3993 42.3158 23.6382 42.3115C23.877 42.3073 24.1126 42.255 24.3309 42.1578C24.5491 42.0606 24.7455 41.9204 24.9084 41.7456L34.7209 31.933V63.2209C34.7209 63.6928 34.9084 64.1453 35.242 64.4789C35.5756 64.8126 36.0282 65 36.5 65C36.9718 65 37.4244 64.8126 37.758 64.4789C38.0916 64.1453 38.2791 63.6928 38.2791 63.2209V31.933L48.0916 41.7456C48.2545 41.9204 48.4509 42.0606 48.6691 42.1578C48.8874 42.255 49.123 42.3073 49.3618 42.3115C49.6007 42.3158 49.838 42.2718 50.0595 42.1823C50.281 42.0929 50.4823 41.9597 50.6512 41.7907C50.8201 41.6218 50.9533 41.4206 51.0428 41.199C51.1323 40.9775 51.1762 40.7402 51.172 40.5014C51.1678 40.2625 51.1155 40.0269 51.0183 39.8087C50.921 39.5904 50.7808 39.394 50.606 39.2312L37.7572 26.3823C37.4236 26.0492 36.9715 25.862 36.5 25.862C36.0285 25.862 35.5764 26.0492 35.2428 26.3823L22.394 39.2312V39.2312Z" fill="black"/>
</g>
<defs>
<clipPath id="clip0_930_475">
<rect width="72" height="72" fill="white"/>
</clipPath>
</defs>
</svg>
