<svg width="74" height="74" viewBox="0 0 74 74" fill="none" xmlns="http://www.w3.org/2000/svg">
<circle cx="37" cy="37" r="35.5" stroke="#243C84" stroke-width="3"/>
<path fill-rule="evenodd" clip-rule="evenodd" d="M13 16.2C12.7636 16.2 12.5295 16.2465 12.3111 16.337C12.0927 16.4274 11.8943 16.56 11.7272 16.7272C11.56 16.8943 11.4274 17.0927 11.337 17.3111C11.2465 17.5295 11.2 17.7636 11.2 18C11.2 18.2363 11.2465 18.4704 11.337 18.6888C11.4274 18.9072 11.56 19.1056 11.7272 19.2727C11.8943 19.4399 12.0927 19.5725 12.3111 19.6629C12.5295 19.7534 12.7636 19.8 13 19.8H61C61.4773 19.8 61.9352 19.6103 62.2727 19.2727C62.6103 18.9352 62.7999 18.4773 62.7999 18C62.7999 17.5226 62.6103 17.0647 62.2727 16.7272C61.9352 16.3896 61.4773 16.2 61 16.2H13V16.2ZM22.728 41.728C22.5511 41.8927 22.4093 42.0915 22.3109 42.3123C22.2125 42.5331 22.1596 42.7714 22.1553 43.0131C22.1511 43.2548 22.1955 43.4949 22.2861 43.719C22.3766 43.9431 22.5113 44.1467 22.6823 44.3176C22.8532 44.4886 23.0568 44.6233 23.2809 44.7138C23.505 44.8044 23.7451 44.8488 23.9868 44.8446C24.2285 44.8403 24.4668 44.7874 24.6876 44.689C24.9084 44.5906 25.1072 44.4488 25.272 44.272L35.2 34.344V66C35.2 66.4773 35.3896 66.9352 35.7272 67.2727C36.0647 67.6103 36.5226 67.8 37 67.8C37.4773 67.8 37.9352 67.6103 38.2727 67.2727C38.6103 66.9352 38.7999 66.4773 38.7999 66V34.344L48.728 44.272C48.8927 44.4488 49.0915 44.5906 49.3123 44.689C49.5331 44.7874 49.7714 44.8403 50.0131 44.8446C50.2548 44.8488 50.4949 44.8044 50.719 44.7138C50.9431 44.6233 51.1467 44.4886 51.3176 44.3176C51.4886 44.1467 51.6233 43.9431 51.7138 43.719C51.8044 43.4949 51.8488 43.2548 51.8446 43.0131C51.8403 42.7714 51.7874 42.5331 51.689 42.3123C51.5906 42.0915 51.4488 41.8927 51.2719 41.728L38.2719 28.728C37.9344 28.3909 37.477 28.2015 37 28.2015C36.5229 28.2015 36.0655 28.3909 35.728 28.728L22.728 41.728V41.728Z" fill="black"/>
</svg>
